<svg version="1" xmlns="http://www.w3.org/2000/svg" width="6666.667" height="6666.667" viewBox="0 0 5000.000000 5000.000000"><path d="M0 2500v2500h5000V0H0v2500zM4453 318c67.1 6.1 128.7 35.7 176.1 84.7 31.7 32.8 53.9 71.1 66.6 115l3.7 12.8.4 52.3.3 52.3-3.5 13.7c-11.6 46.5-35.7 90.6-72.9 133.8-5.2 6-255.8 257.8-556.8 559.4-503.6 504.5-547.4 548.6-547.2 551.4.1 1.7 138.5 538.6 307.6 1193.1l307.5 1190-202.6 202.7C3820.7 4590.8 3729.3 4682 3729 4682c-.4 0-233.2-448.4-517.5-996.5l-517-996.5-405.8 405.8-405.9 405.9 36.6 311.4c20.1 171.3 36.7 312.4 36.9 313.6.3 1.7-32.1 34.6-160.2 162.7l-160.7 160.7-187.8-357.3c-103.3-196.5-188.3-357.8-188.9-358.4-.7-.6-161.6-85.4-357.7-188.4-196.1-103.1-356.7-187.5-357-187.7-.2-.2 71.8-72.6 160.1-160.9l160.6-160.6 315.3 38.7 315.2 38.8 405.9-405.9 405.9-405.9L1303.5 1773 300 1244.5l202.7-202.8C678.8 865.6 705.8 838.9 708 839.3c1.4.2 549.4 145 1217.9 321.7l1215.3 321.3 539.7-539.5c296.8-296.7 543.7-542.9 548.6-547 51.2-42.6 104.9-67.9 161-75.8 7.7-1.1 16-2.1 18.5-2.3 10.5-.8 33.3-.6 44 .3z"/></svg>